<?xml version="1.0" encoding="utf-8"?>
<!-- Generator: Adobe Illustrator 19.0.0, SVG Export Plug-In . SVG Version: 6.00 Build 0)  -->
<svg version="1.1" id="Layer_1" xmlns="http://www.w3.org/2000/svg" xmlns:xlink="http://www.w3.org/1999/xlink" x="0px" y="0px"
	 viewBox="18 162 612 612" style="enable-background:new 18 162 612 612;" xml:space="preserve">
<style type="text/css">
	.st0{fill:#624EA2;}
	.st1{fill:#FFFFFF;}
	.st2{fill:#DB7519;}
	.st3{fill:#E54E13;}
	.st4{fill:#7FC605;}
</style>
<g>
	<path class="st0" d="M112.9,341.9v-95.5c-28.3,27-51.5,59.4-67.8,95.5H112.9L112.9,341.9z"/>
	<path class="st1" d="M30.2,382.1C22.2,409.3,18,438.2,18,468c0,87.2,36.5,165.8,94.9,221.5V382.1H30.2z"/>
	<path class="st1" d="M602.9,341.9C554.9,235.8,448,162,324,162c-4,0-8,0.1-11.9,0.2v179.7H602.9z"/>
	<path class="st2" d="M625.9,517.9c2.7-16.2,4.1-32.9,4.1-49.9c0-29.8-4.3-58.7-12.2-85.9H312.1V518L625.9,517.9L625.9,517.9z"/>
	<path class="st0" d="M312.1,558.1v215.7c4,0.2,7.9,0.2,11.9,0.2c137.6,0,254.1-90.9,292.5-215.9H312.1z"/>
	<path class="st0" d="M271.9,341.9V166.4c-43.4,7.5-83.7,24.1-118.9,47.7v127.8H271.9z"/>
	<path class="st3" d="M154,659h117.9V382.1H153V659C153.4,659,153.7,659,154,659z"/>
	<path class="st4" d="M154,699c-0.3,0-0.6-0.1-1-0.1v22.8c35.1,23.7,75.4,40.3,118.9,47.7V699H154L154,699z"/>
</g>
</svg>
