<?xml version="1.0" encoding="utf-8"?>
<!-- Generator: Adobe Illustrator 18.1.1, SVG Export Plug-In . SVG Version: 6.00 Build 0)  -->
<svg version="1.0" id="Layer_1" xmlns="http://www.w3.org/2000/svg" xmlns:xlink="http://www.w3.org/1999/xlink" x="0px" y="0px"
	 viewBox="-154 343.2 612 612" enable-background="new -154 343.2 612 612" xml:space="preserve">
<circle fill="#336699" cx="152" cy="649.2" r="306"/>
<path fill="#ffeb3b" d="M292.1,453.1c-72-29.4-126.1,81-54.1,111.4l-16,133.2C219,720.6,219,745,209,766.4
	c-20.4,44.1-72.9,49.3-106,16.2c-37.5-37.5-12.1-73.1-7.3-116.2c1.5-13.5-7.9-26.6-22.3-26.6c-14.6,0-26,14.6-34.6,24.6
	c-21.6,25.2-42.7,52.7-55.8,83.3c-6.7,15.6-14.8,41.8,9.2,47c17.7,4,35.6-13.1,52-17.9c21.6,73.3,128,96.8,181.1,45.8
	c61.8-59.5,36.2-167.2,56.2-243.3c2.7-10.6,12.7-12.5,20.8-18.3c11.7-8.3,21.9-21.4,24.4-35.8C331.6,496.4,320.2,464.8,292.1,453.1z
	 M266.5,537.8c-36.8,0-36.6-57,0-57C303.3,480.8,303.1,537.8,266.5,537.8z"/>
</svg>
