<?xml version="1.0" encoding="utf-8"?>
<!-- Generator: Adobe Illustrator 21.0.0, SVG Export Plug-In . SVG Version: 6.00 Build 0)  -->
<svg version="1.1" id="Layer_1" xmlns="http://www.w3.org/2000/svg" xmlns:xlink="http://www.w3.org/1999/xlink" x="0px" y="0px"
	 viewBox="0 0 600 600" style="enable-background:new 0 0 600 600;" xml:space="preserve">
<style type="text/css">
	.st0{fill:#E6E6E6;}
	.st1{fill:#22B573;}
	.st2{fill:#009245;}
	.st3{fill:#FFFFFF;}
	.st4{fill:none;stroke:#FFFFFF;stroke-width:2;stroke-miterlimit:10;}
	.st5{fill:#CCCCCC;}
	.st6{fill:#8CC63F;}
</style>
<g>
	<rect x="180.57" y="325.29" class="st0" width="296.95" height="210.85"/>
	<rect x="180.57" y="325.29" class="st1" width="296.95" height="38.96"/>
	<path class="st2" d="M180.57,325.29H230v7.59c0,4.73-3.83,8.56-8.56,8.56h-40.87V325.29z"/>
	<path class="st2" d="M343.92,352.85L343.92,352.85c-4.46,0-8.08-3.62-8.08-8.08l0,0c0-4.46,3.62-8.08,8.08-8.08l0,0
		c4.46,0,8.08,3.62,8.08,8.08l0,0C352,349.23,348.38,352.85,343.92,352.85z"/>
	<path class="st2" d="M368.67,352.85L368.67,352.85c-4.46,0-8.08-3.62-8.08-8.08l0,0c0-4.46,3.62-8.08,8.08-8.08l0,0
		c4.46,0,8.08,3.62,8.08,8.08l0,0C376.75,349.23,373.13,352.85,368.67,352.85z"/>
	<path class="st2" d="M392.92,352.85L392.92,352.85c-4.46,0-8.08-3.62-8.08-8.08l0,0c0-4.46,3.62-8.08,8.08-8.08l0,0
		c4.46,0,8.08,3.62,8.08,8.08l0,0C401,349.23,397.38,352.85,392.92,352.85z"/>
	<rect x="185" y="369" class="st3" width="94.75" height="14.75"/>
	<rect x="185" y="386.75" class="st3" width="94.75" height="14.75"/>
	<rect x="185" y="404.5" class="st3" width="94.75" height="14.75"/>
	<rect x="185" y="422.25" class="st3" width="94.75" height="14.75"/>
	<rect x="185" y="440" class="st3" width="94.75" height="14.75"/>
	<rect x="185" y="457.75" class="st3" width="94.75" height="14.75"/>
	<rect x="185" y="475.5" class="st3" width="94.75" height="14.75"/>
	<rect x="185" y="493.25" class="st3" width="94.75" height="14.75"/>
	<rect x="185" y="511" class="st3" width="94.75" height="14.75"/>
	<rect x="282" y="369" class="st3" width="94.75" height="14.75"/>
	<rect x="282" y="386.75" class="st3" width="94.75" height="14.75"/>
	<rect x="282" y="404.5" class="st3" width="94.75" height="14.75"/>
	<rect x="282" y="422.25" class="st3" width="94.75" height="14.75"/>
	<rect x="282" y="440" class="st3" width="94.75" height="14.75"/>
	<rect x="282" y="457.75" class="st3" width="94.75" height="14.75"/>
	<rect x="282" y="475.5" class="st3" width="94.75" height="14.75"/>
	<rect x="282" y="493.25" class="st3" width="94.75" height="14.75"/>
	<rect x="282" y="511" class="st3" width="94.75" height="14.75"/>
	<rect x="378.75" y="369" class="st3" width="94.75" height="14.75"/>
	<rect x="378.75" y="386.75" class="st3" width="94.75" height="14.75"/>
	<rect x="378.75" y="404.5" class="st3" width="94.75" height="14.75"/>
	<rect x="378.75" y="422.25" class="st3" width="94.75" height="14.75"/>
	<rect x="378.75" y="440" class="st3" width="94.75" height="14.75"/>
	<rect x="378.75" y="457.75" class="st3" width="94.75" height="14.75"/>
	<rect x="378.75" y="475.5" class="st3" width="94.75" height="14.75"/>
	<rect x="378.75" y="493.25" class="st3" width="94.75" height="14.75"/>
	<rect x="378.75" y="511" class="st3" width="94.75" height="14.75"/>
	<rect x="180.57" y="530.25" class="st1" width="296.95" height="5.9"/>
	<g>
		<line class="st4" x1="470.5" y1="331.94" x2="461" y2="341.44"/>
		<line class="st4" x1="461" y1="331.94" x2="470.5" y2="341.44"/>
	</g>
</g>
<g>
	<rect x="42.4" y="43.14" class="st5" width="367.96" height="66.5"/>
	<rect x="39.49" y="40.23" class="st3" width="367.96" height="66.5"/>
	<g>
		<g>
			<g>
				<path class="st6" d="M101.84,88.81l-6.6-6.6c-1.32-1.31-3.49-1.27-4.85,0.09l-3.33,3.33c-0.21-0.12-0.43-0.24-0.66-0.37
					c-2.1-1.16-4.98-2.76-8-5.79c-3.03-3.03-4.63-5.91-5.8-8.02c-0.12-0.22-0.24-0.44-0.36-0.64l2.23-2.23l1.1-1.1
					c1.36-1.36,1.4-3.54,0.09-4.85l-6.6-6.6c-1.31-1.31-3.49-1.27-4.85,0.09l-1.86,1.87l0.05,0.05c-0.62,0.8-1.15,1.71-1.53,2.71
					c-0.36,0.94-0.58,1.84-0.68,2.74c-0.87,7.23,2.43,13.83,11.4,22.8c12.39,12.39,22.38,11.45,22.81,11.41
					c0.94-0.11,1.84-0.34,2.75-0.69c0.98-0.38,1.9-0.9,2.7-1.53l0.04,0.04l1.89-1.85C103.12,92.3,103.15,90.12,101.84,88.81z"/>
			</g>
		</g>
	</g>
	<rect x="180.26" y="70.57" class="st5" width="159.22" height="5.83"/>
</g>
<g>
	<rect x="185.12" y="136.39" class="st5" width="277.42" height="50.14"/>
	<rect x="182.93" y="134.19" class="st3" width="277.42" height="50.14"/>
	<g>
		<g>
			<g>
				<path class="st6" d="M229.94,170.82l-4.98-4.98c-0.99-0.99-2.63-0.96-3.66,0.07l-2.51,2.51c-0.16-0.09-0.32-0.18-0.49-0.28
					c-1.58-0.88-3.75-2.08-6.03-4.36c-2.29-2.29-3.49-4.46-4.37-6.04c-0.09-0.17-0.18-0.33-0.27-0.48l1.68-1.68l0.83-0.83
					c1.03-1.03,1.06-2.67,0.07-3.66l-4.98-4.98c-0.99-0.99-2.63-0.96-3.66,0.07l-1.4,1.41l0.04,0.04c-0.47,0.6-0.86,1.29-1.16,2.04
					c-0.27,0.71-0.44,1.39-0.51,2.07c-0.66,5.45,1.83,10.43,8.59,17.19c9.34,9.34,16.87,8.64,17.2,8.6
					c0.71-0.08,1.39-0.25,2.07-0.52c0.74-0.29,1.43-0.68,2.03-1.15l0.03,0.03l1.42-1.39C230.9,173.45,230.93,171.81,229.94,170.82z"
					/>
			</g>
		</g>
	</g>
	<rect x="289.06" y="157.07" class="st5" width="120.04" height="4.39"/>
</g>
<g>
	<rect x="265.72" y="204.2" class="st5" width="215.39" height="38.93"/>
	<rect x="264.02" y="202.49" class="st3" width="215.39" height="38.93"/>
	<g>
		<g>
			<g>
				<path class="st6" d="M300.52,230.93l-3.87-3.87c-0.77-0.77-2.04-0.74-2.84,0.05l-1.95,1.95c-0.12-0.07-0.25-0.14-0.38-0.21
					c-1.23-0.68-2.91-1.62-4.68-3.39c-1.78-1.78-2.71-3.46-3.39-4.69c-0.07-0.13-0.14-0.26-0.21-0.38l1.31-1.31l0.64-0.64
					c0.8-0.8,0.82-2.07,0.05-2.84l-3.87-3.87c-0.77-0.77-2.04-0.74-2.84,0.05l-1.09,1.1l0.03,0.03c-0.37,0.47-0.67,1-0.9,1.58
					c-0.21,0.55-0.34,1.08-0.4,1.61c-0.51,4.23,1.42,8.1,6.67,13.35c7.25,7.25,13.1,6.71,13.35,6.68c0.55-0.07,1.08-0.2,1.61-0.4
					c0.57-0.22,1.11-0.53,1.58-0.89l0.02,0.02l1.1-1.08C301.27,232.98,301.29,231.7,300.52,230.93z"/>
			</g>
		</g>
	</g>
	<rect x="346.43" y="220.25" class="st5" width="93.2" height="3.41"/>
</g>
<g>
	<rect x="241.54" y="259.57" class="st5" width="198.43" height="35.86"/>
	<rect x="239.97" y="258" class="st3" width="198.43" height="35.86"/>
	<g>
		<g>
			<g>
				<path class="st6" d="M273.6,284.19l-3.56-3.56c-0.71-0.71-1.88-0.68-2.62,0.05l-1.79,1.79c-0.11-0.06-0.23-0.13-0.35-0.2
					c-1.13-0.63-2.68-1.49-4.32-3.12c-1.64-1.64-2.5-3.19-3.13-4.32c-0.07-0.12-0.13-0.24-0.19-0.35l1.2-1.2l0.59-0.59
					c0.74-0.74,0.76-1.91,0.05-2.62l-3.56-3.56c-0.71-0.71-1.88-0.69-2.62,0.05l-1,1.01l0.03,0.03c-0.34,0.43-0.62,0.92-0.83,1.46
					c-0.19,0.51-0.31,0.99-0.37,1.48c-0.47,3.9,1.31,7.46,6.15,12.3c6.68,6.68,12.07,6.18,12.3,6.15c0.51-0.06,0.99-0.18,1.48-0.37
					c0.53-0.21,1.02-0.49,1.45-0.82l0.02,0.02l1.02-1C274.28,286.08,274.31,284.9,273.6,284.19z"/>
			</g>
		</g>
	</g>
	<rect x="315.89" y="274.36" class="st5" width="85.86" height="3.14"/>
</g>
<g>
	<rect x="217.49" y="314.63" class="st5" width="155.08" height="28.03"/>
	<rect x="216.26" y="313.4" class="st3" width="155.08" height="28.03"/>
	<g>
		<g>
			<g>
				<path class="st6" d="M242.54,333.87l-2.78-2.78c-0.55-0.55-1.47-0.54-2.05,0.04l-1.4,1.4c-0.09-0.05-0.18-0.1-0.28-0.15
					c-0.89-0.49-2.1-1.16-3.37-2.44c-1.28-1.28-1.95-2.49-2.44-3.38c-0.05-0.09-0.1-0.18-0.15-0.27l0.94-0.94l0.46-0.46
					c0.57-0.57,0.59-1.49,0.04-2.05l-2.78-2.78c-0.55-0.55-1.47-0.54-2.05,0.04l-0.78,0.79l0.02,0.02
					c-0.26,0.34-0.48,0.72-0.65,1.14c-0.15,0.4-0.24,0.78-0.29,1.16c-0.37,3.05,1.02,5.83,4.8,9.61c5.22,5.22,9.43,4.83,9.61,4.81
					c0.4-0.05,0.77-0.14,1.16-0.29c0.41-0.16,0.8-0.38,1.14-0.64l0.02,0.02l0.79-0.78C243.08,335.35,243.09,334.43,242.54,333.87z"
					/>
			</g>
		</g>
	</g>
	<rect x="275.59" y="326.19" class="st5" width="67.11" height="2.46"/>
</g>
<g>
	<rect x="272.01" y="354.31" class="st5" width="114.99" height="20.78"/>
	<rect x="271.1" y="353.4" class="st3" width="114.99" height="20.78"/>
	<g>
		<g>
			<g>
				<path class="st6" d="M290.58,368.58l-2.06-2.06c-0.41-0.41-1.09-0.4-1.52,0.03l-1.04,1.04c-0.07-0.04-0.13-0.07-0.21-0.11
					c-0.66-0.36-1.56-0.86-2.5-1.81c-0.95-0.95-1.45-1.85-1.81-2.51c-0.04-0.07-0.08-0.14-0.11-0.2l0.7-0.7l0.34-0.34
					c0.43-0.43,0.44-1.11,0.03-1.52l-2.06-2.06c-0.41-0.41-1.09-0.4-1.52,0.03l-0.58,0.58l0.02,0.02c-0.2,0.25-0.36,0.54-0.48,0.85
					c-0.11,0.29-0.18,0.58-0.21,0.86c-0.27,2.26,0.76,4.32,3.56,7.13c3.87,3.87,6.99,3.58,7.13,3.57c0.29-0.04,0.57-0.11,0.86-0.22
					c0.31-0.12,0.59-0.28,0.84-0.48l0.01,0.01l0.59-0.58C290.98,369.68,290.99,369,290.58,368.58z"/>
			</g>
		</g>
	</g>
	<rect x="315.09" y="362.88" class="st5" width="49.76" height="1.82"/>
</g>
<g>
</g>
<g>
</g>
<g>
</g>
<g>
</g>
<g>
</g>
<g>
</g>
<g>
</g>
<g>
</g>
<g>
</g>
<g>
</g>
<g>
</g>
<g>
</g>
<g>
</g>
<g>
</g>
<g>
</g>
</svg>
