<?xml version="1.0" encoding="utf-8"?>
<!-- Generator: Adobe Illustrator 21.0.0, SVG Export Plug-In . SVG Version: 6.00 Build 0)  -->
<svg version="1.1" id="Layer_1" xmlns="http://www.w3.org/2000/svg" xmlns:xlink="http://www.w3.org/1999/xlink" x="0px" y="0px"
	 viewBox="0 0 960 157.33" style="enable-background:new 0 0 960 157.33;" xml:space="preserve">
<style type="text/css">
	.st0{fill:#FFFFFF;}
	.st1{fill:none;stroke:#FFFFFF;stroke-width:3;stroke-miterlimit:10;}
	.st2{clip-path:url(#SVGID_2_);}
	.st3{fill:#B5E4FA;}
	.st4{fill:#FAFBFC;}
	.st5{fill:#84D2F6;}
	.st6{fill:#66BB6A;}
	.st7{fill:#42A047;}
	.st8{fill:#6E4D42;}
	.st9{fill:#4E352E;}
	.st10{fill:#327E3E;}
	.st11{fill:#1E5F30;}
	.st12{fill:#F5F5F6;}
	.st13{fill:#E1E1E0;}
	.st14{fill:#5D4137;}
</style>
<g>
	<g>
		<g>
			<g>
				<g>
					<path class="st0" d="M936.82,118.12l-12.73-12.73c-2.54-2.53-6.73-2.45-9.36,0.18l-6.41,6.41c-0.41-0.22-0.82-0.46-1.27-0.7
						c-4.05-2.24-9.59-5.32-15.43-11.16c-5.85-5.85-8.93-11.4-11.18-15.45c-0.24-0.43-0.47-0.84-0.69-1.24l4.3-4.3l2.12-2.12
						c2.63-2.63,2.7-6.83,0.17-9.36l-12.73-12.73c-2.53-2.53-6.73-2.45-9.36,0.18l-3.59,3.61l0.1,0.1c-1.2,1.54-2.21,3.31-2.96,5.21
						c-0.69,1.82-1.12,3.55-1.32,5.29c-1.68,13.94,4.69,26.67,21.97,43.95c23.89,23.89,43.14,22.08,43.97,21.99
						c1.81-0.22,3.54-0.65,5.3-1.33c1.89-0.74,3.66-1.74,5.2-2.94l0.08,0.07l3.63-3.56C939.27,124.86,939.35,120.66,936.82,118.12z"
						/>
				</g>
			</g>
		</g>
		<g>
			<g>
				<g>
					<path class="st0" d="M768.15,126.64c-3.38,0-6.13,2.75-6.13,6.13s2.75,6.13,6.13,6.13c3.38,0,6.13-2.75,6.13-6.13
						S771.53,126.64,768.15,126.64z M768.15,135.84c-1.69,0-3.07-1.37-3.07-3.07s1.37-3.07,3.07-3.07c1.69,0,3.07,1.37,3.07,3.07
						S769.84,135.84,768.15,135.84z"/>
					<path class="st0" d="M786.54,126.64c-3.38,0-6.13,2.75-6.13,6.13s2.75,6.13,6.13,6.13c3.38,0,6.13-2.75,6.13-6.13
						S789.92,126.64,786.54,126.64z M786.54,135.84c-1.69,0-3.07-1.37-3.07-3.07s1.37-3.07,3.07-3.07c1.69,0,3.07,1.37,3.07,3.07
						S788.23,135.84,786.54,135.84z"/>
					<path class="st0" d="M804.93,126.64c-3.38,0-6.13,2.75-6.13,6.13s2.75,6.13,6.13,6.13c3.38,0,6.13-2.75,6.13-6.13
						S808.32,126.64,804.93,126.64z M804.93,135.84c-1.69,0-3.07-1.37-3.07-3.07s1.37-3.07,3.07-3.07c1.69,0,3.07,1.37,3.07,3.07
						S806.62,135.84,804.93,135.84z"/>
					<path class="st0" d="M817.2,132.78c0,3.38,2.75,6.13,6.13,6.13c3.38,0,6.13-2.75,6.13-6.13s-2.75-6.13-6.13-6.13
						C819.95,126.64,817.2,129.39,817.2,132.78z M823.33,129.71c1.69,0,3.07,1.37,3.07,3.07s-1.38,3.07-3.07,3.07
						c-1.69,0-3.07-1.37-3.07-3.07S821.64,129.71,823.33,129.71z"/>
					<path class="st0" d="M849.53,77.59l-0.37-3.07h-10.5v3.07H821.8v-7.34l-6.62-1.58c-2.01-9.1-10.02-15.6-19.43-15.6
						c-9.41,0-17.43,6.5-19.43,15.6l-6.62,1.58v30.33c0,2.54,2.06,4.6,4.6,4.6h1.53v3.07h-6.13v9.2h-1.53
						c-8.45,0-15.33,6.88-15.33,15.33s6.88,15.33,15.33,15.33h55.18c8.45,0,15.33-6.88,15.33-15.33s-6.88-15.33-15.33-15.33h-1.53
						v-9.2h-6.13v-3.07h6.13v-9.2h16.86v3.07h19.54l-1.8-3.07h-14.67v-3.07h13.21l-1.57-3.07h-11.63v-6.13l9.43,0l-0.72-3.06h-8.71
						v-3.07H849.53z M811.93,68.4H798.8c-1.69,0-3.07-1.38-3.07-3.07c0-1.69,1.37-3.07,3.07-3.07h9.94
						C810.19,64.03,811.29,66.11,811.93,68.4z M824.86,123.58v-2.96c1.13,0.14,2.21,0.43,3.22,0.85l-1.48,2.57l2.65,1.53l1.48-2.56
						c0.89,0.68,1.68,1.47,2.35,2.35l-2.56,1.48l1.53,2.65l2.57-1.48c0.43,1.01,0.71,2.1,0.85,3.22h-2.96v3.07h2.96
						c-0.14,1.13-0.43,2.21-0.85,3.22l-2.57-1.48l-1.53,2.65l2.56,1.48c-0.67,0.89-1.47,1.68-2.35,2.35l-1.48-2.56l-2.65,1.53
						l1.48,2.57c-1.01,0.43-2.1,0.71-3.22,0.85v-2.96h-3.07v3.07h-3.07v-3.07h-3.07v3.07h-3.07v-3.07h-3.07v3.07h-3.07v-3.07h-3.07
						v3.07h-3.07v-3.07h-3.07v3.07h-3.07v-3.07h-3.07v3.07h-3.07v-3.07h-3.07v3.07h-3.07v-3.07h-3.07v3.07h-3.07v-3.07h-3.07v3.07
						h-3.07v-3.07h-3.07v2.96c-1.13-0.14-2.21-0.43-3.22-0.85l1.49-2.57l-2.65-1.53l-1.48,2.56c-0.89-0.67-1.68-1.47-2.35-2.35
						l2.56-1.48l-1.53-2.65l-2.57,1.48c-0.43-1.01-0.71-2.09-0.86-3.22h2.96v-3.07h-2.96c0.14-1.13,0.43-2.21,0.85-3.22l2.57,1.48
						l1.53-2.65l-2.56-1.48c0.67-0.89,1.47-1.68,2.35-2.35l1.48,2.56l2.65-1.53l-1.49-2.57c1.01-0.43,2.1-0.71,3.22-0.85v2.96h3.07
						v-3.07h3.07v3.07h3.07v-3.07h3.07v3.07h3.07v-3.07h3.07v3.07h3.07v-3.07h3.07v3.07h3.07v-3.07h3.07v3.07h3.07v-3.07h3.07v3.07
						h3.07v-3.07h3.07v3.07h3.07v-3.07h3.07v3.07h3.07v-3.07h3.07v3.07H824.86z M818.73,111.32v6.13h-45.98v-6.13H818.73z
						 M778.88,108.25v-3.07h33.72v3.07H778.88z M818.73,102.12h-44.45c-0.85,0-1.53-0.69-1.53-1.53V72.67l6.22-1.49l0.17-1
						c1.37-8.14,8.35-14.05,16.61-14.05c3.6,0,6.95,1.12,9.71,3.07h-6.64c-3.38,0-6.13,2.75-6.13,6.13s2.75,6.13,6.13,6.13h14.87
						l5.05,1.21v4.92H798.8c-5.07,0-9.2,4.12-9.2,9.2c0,5.07,4.12,9.2,9.2,9.2h19.93V102.12z M838.66,83.73v7.66v1.53H798.8
						c-3.38,0-6.13-2.75-6.13-6.13c0-3.38,2.75-6.13,6.13-6.13h33.72v9.2h3.07v-9.2h3.07V83.73z"/>
					<path class="st0" d="M798.8,82.19c-2.54,0-4.6,2.06-4.6,4.6c0,2.54,2.06,4.6,4.6,4.6s4.6-2.06,4.6-4.6
						C803.4,84.26,801.34,82.19,798.8,82.19z M798.8,88.32c-0.85,0-1.53-0.69-1.53-1.53c0-0.85,0.69-1.53,1.53-1.53
						c0.85,0,1.53,0.69,1.53,1.53C800.34,87.64,799.65,88.32,798.8,88.32z"/>
				</g>
			</g>
		</g>
	</g>
	<rect x="662.34" y="144.74" class="st0" width="78.96" height="3.36"/>
	<rect x="644.34" y="144.74" class="st0" width="13.92" height="3.36"/>
	<rect x="635.7" y="144.74" class="st0" width="3.36" height="3.36"/>
</g>
<path class="st1" d="M708.87,104.26H251.13c-5.59,0-10.13-4.53-10.13-10.13V63.2c0-5.59,4.53-10.13,10.13-10.13h457.74
	c5.59,0,10.13,4.53,10.13,10.13v30.94C719,99.73,714.47,104.26,708.87,104.26z"/>
<g>
	<path class="st0" d="M380.53,67.18v7.18h0.05c0.3-0.78,0.83-1.41,1.6-1.89c0.77-0.48,1.61-0.71,2.52-0.71
		c0.9,0,1.65,0.12,2.26,0.35s1.1,0.56,1.46,0.99c0.37,0.42,0.62,0.95,0.77,1.56c0.15,0.62,0.23,1.31,0.23,2.08v8.3h-1.58v-8.05
		c0-0.55-0.05-1.06-0.15-1.54s-0.27-0.89-0.52-1.24c-0.25-0.35-0.59-0.62-1.01-0.82c-0.42-0.2-0.95-0.3-1.59-0.3
		c-0.63,0-1.2,0.11-1.69,0.34c-0.49,0.22-0.91,0.53-1.25,0.92c-0.34,0.39-0.61,0.86-0.8,1.4c-0.19,0.54-0.3,1.13-0.31,1.76v7.52
		h-1.57V67.18H380.53z"/>
	<path class="st0" d="M397.53,72.13v1.32h-2.62v8.7c0,0.52,0.07,0.92,0.21,1.21c0.14,0.29,0.5,0.45,1.06,0.49
		c0.45,0,0.9-0.03,1.35-0.08v1.33c-0.23,0-0.47,0.01-0.7,0.02c-0.23,0.02-0.47,0.02-0.7,0.02c-1.05,0-1.78-0.2-2.2-0.61
		s-0.62-1.16-0.6-2.26v-8.83h-2.25v-1.32h2.25v-3.88h1.58v3.88H397.53z"/>
	<path class="st0" d="M404.93,72.13v1.32h-2.62v8.7c0,0.52,0.07,0.92,0.21,1.21c0.14,0.29,0.5,0.45,1.06,0.49
		c0.45,0,0.9-0.03,1.35-0.08v1.33c-0.23,0-0.47,0.01-0.7,0.02c-0.23,0.02-0.47,0.02-0.7,0.02c-1.05,0-1.78-0.2-2.2-0.61
		s-0.62-1.16-0.6-2.26v-8.83h-2.25v-1.32h2.25v-3.88h1.58v3.88H404.93z"/>
	<path class="st0" d="M408.65,72.13v2.45h0.05c0.37-0.9,0.96-1.6,1.79-2.09c0.82-0.49,1.76-0.74,2.81-0.74
		c0.98,0,1.84,0.18,2.56,0.55c0.73,0.37,1.33,0.86,1.81,1.49c0.48,0.62,0.84,1.35,1.07,2.17s0.35,1.7,0.35,2.61
		c0,0.92-0.12,1.79-0.35,2.61c-0.23,0.82-0.59,1.55-1.07,2.17c-0.48,0.62-1.09,1.12-1.81,1.48s-1.58,0.54-2.56,0.54
		c-0.47,0-0.93-0.06-1.4-0.18c-0.47-0.12-0.9-0.29-1.3-0.52c-0.4-0.23-0.75-0.52-1.06-0.88c-0.31-0.35-0.55-0.76-0.71-1.23h-0.05
		v7.2h-1.58V72.13H408.65z M417.29,76.6c-0.16-0.66-0.41-1.25-0.75-1.76c-0.34-0.52-0.78-0.94-1.31-1.26
		c-0.53-0.33-1.17-0.49-1.92-0.49c-0.87,0-1.59,0.15-2.18,0.45s-1.05,0.7-1.4,1.2s-0.6,1.08-0.74,1.75
		c-0.14,0.67-0.21,1.37-0.21,2.1c0,0.67,0.08,1.33,0.24,1.99c0.16,0.66,0.42,1.25,0.77,1.76c0.36,0.52,0.83,0.94,1.4,1.26
		c0.58,0.33,1.28,0.49,2.11,0.49c0.75,0,1.39-0.16,1.92-0.49c0.53-0.33,0.97-0.75,1.31-1.26c0.34-0.52,0.59-1.1,0.75-1.76
		c0.16-0.66,0.24-1.32,0.24-1.99C417.53,77.92,417.45,77.25,417.29,76.6z"/>
	<path class="st0" d="M422.48,72.53h2.1v2.65h-2.1V72.53z M422.48,82.38h2.1v2.65h-2.1V82.38z"/>
	<path class="st0" d="M434.38,66.81h1.27l-7.62,18.58h-1.32L434.38,66.81z"/>
	<path class="st0" d="M442.7,66.81h1.27l-7.62,18.58h-1.32L442.7,66.81z"/>
	<path class="st0" d="M446.07,82.38h2.1v2.65h-2.1V82.38z"/>
	<path class="st0" d="M453.02,82.38h2.1v2.65h-2.1V82.38z"/>
	<path class="st0" d="M459.98,82.38h2.1v2.65h-2.1V82.38z"/>
	<path class="st0" d="M466.92,82.38h2.1v2.65h-2.1V82.38z"/>
	<path class="st0" d="M478.83,66.81h1.27l-7.62,18.58h-1.32L478.83,66.81z"/>
	<path class="st0" d="M487.3,74.43c-0.57,0-1.04,0.13-1.43,0.39s-0.7,0.59-0.94,1c-0.24,0.41-0.41,0.86-0.51,1.35
		c-0.1,0.49-0.15,0.98-0.15,1.46c0,0.47,0.05,0.94,0.15,1.42c0.1,0.48,0.26,0.92,0.49,1.31c0.22,0.39,0.53,0.71,0.91,0.96
		c0.38,0.25,0.85,0.38,1.4,0.38c0.85,0,1.5-0.24,1.96-0.71s0.75-1.11,0.86-1.91h3.42c-0.23,1.72-0.9,3.03-2,3.93
		s-2.51,1.35-4.22,1.35c-0.97,0-1.85-0.16-2.66-0.49c-0.81-0.32-1.5-0.78-2.06-1.36s-1.01-1.28-1.33-2.09
		c-0.32-0.81-0.47-1.7-0.47-2.66c0-1,0.15-1.93,0.44-2.79c0.29-0.86,0.72-1.6,1.29-2.23s1.26-1.11,2.08-1.46s1.75-0.52,2.8-0.52
		c0.77,0,1.5,0.1,2.21,0.3c0.71,0.2,1.34,0.5,1.9,0.91c0.56,0.41,1.01,0.92,1.36,1.52c0.35,0.61,0.55,1.33,0.6,2.16h-3.47
		C489.69,75.17,488.82,74.43,487.3,74.43z"/>
	<path class="st0" d="M495.33,76.08c0.05-0.83,0.26-1.52,0.62-2.07c0.37-0.55,0.83-0.99,1.4-1.33c0.57-0.33,1.2-0.57,1.91-0.71
		c0.71-0.14,1.42-0.21,2.14-0.21c0.65,0,1.31,0.05,1.97,0.14c0.67,0.09,1.28,0.27,1.83,0.54c0.55,0.27,1,0.64,1.35,1.11
		c0.35,0.47,0.53,1.1,0.53,1.89v6.73c0,0.58,0.03,1.14,0.1,1.67c0.07,0.53,0.18,0.93,0.35,1.2h-3.6c-0.07-0.2-0.12-0.4-0.16-0.61
		c-0.04-0.21-0.07-0.42-0.09-0.64c-0.57,0.58-1.23,0.99-2,1.23c-0.77,0.23-1.55,0.35-2.35,0.35c-0.62,0-1.19-0.08-1.73-0.23
		s-1-0.38-1.4-0.7c-0.4-0.32-0.71-0.72-0.94-1.2c-0.23-0.48-0.34-1.06-0.34-1.73c0-0.73,0.13-1.34,0.39-1.81
		c0.26-0.48,0.59-0.85,1-1.14c0.41-0.28,0.88-0.5,1.4-0.64c0.52-0.14,1.05-0.25,1.59-0.34c0.53-0.08,1.06-0.15,1.58-0.2
		c0.52-0.05,0.97-0.12,1.38-0.23s0.72-0.25,0.95-0.44c0.23-0.19,0.34-0.47,0.33-0.84c0-0.38-0.06-0.69-0.19-0.91s-0.29-0.4-0.5-0.52
		c-0.21-0.12-0.45-0.21-0.73-0.25c-0.27-0.04-0.57-0.06-0.89-0.06c-0.7,0-1.25,0.15-1.65,0.45c-0.4,0.3-0.63,0.8-0.7,1.5H495.33z
		 M503.53,78.71c-0.15,0.13-0.34,0.24-0.56,0.31c-0.23,0.08-0.47,0.14-0.73,0.19c-0.26,0.05-0.53,0.09-0.81,0.12
		c-0.28,0.03-0.57,0.08-0.85,0.12c-0.27,0.05-0.53,0.12-0.79,0.2c-0.26,0.08-0.48,0.2-0.67,0.34c-0.19,0.14-0.35,0.32-0.46,0.54
		c-0.12,0.22-0.18,0.49-0.18,0.83c0,0.32,0.06,0.58,0.18,0.8c0.12,0.22,0.27,0.39,0.47,0.51s0.43,0.21,0.7,0.26
		c0.27,0.05,0.54,0.08,0.83,0.08c0.7,0,1.24-0.12,1.62-0.35c0.38-0.23,0.67-0.51,0.85-0.84c0.18-0.33,0.3-0.65,0.34-0.99
		c0.04-0.33,0.06-0.6,0.06-0.8V78.71z"/>
	<path class="st0" d="M513.47,67.18v17.85h-3.55V67.18H513.47z"/>
	<path class="st0" d="M519.92,67.18v17.85h-3.55V67.18H519.92z"/>
	<path class="st0" d="M525.71,81.82c0.16,0.27,0.36,0.5,0.61,0.67c0.25,0.18,0.54,0.3,0.86,0.39s0.66,0.12,1.01,0.12
		c0.25,0,0.51-0.03,0.79-0.09c0.28-0.06,0.53-0.15,0.75-0.28c0.23-0.12,0.41-0.29,0.56-0.5c0.15-0.21,0.23-0.47,0.23-0.79
		c0-0.53-0.35-0.93-1.06-1.2c-0.71-0.27-1.7-0.53-2.96-0.8c-0.52-0.12-1.02-0.25-1.51-0.41c-0.49-0.16-0.93-0.37-1.31-0.62
		s-0.69-0.58-0.92-0.98s-0.35-0.87-0.35-1.44c0-0.83,0.16-1.52,0.49-2.05s0.75-0.95,1.29-1.26c0.53-0.31,1.13-0.52,1.8-0.65
		c0.67-0.12,1.35-0.19,2.05-0.19c0.7,0,1.38,0.07,2.04,0.2c0.66,0.13,1.25,0.36,1.76,0.68c0.52,0.32,0.95,0.74,1.29,1.26
		c0.34,0.53,0.55,1.19,0.61,1.99h-3.38c-0.05-0.68-0.31-1.15-0.77-1.39c-0.47-0.24-1.02-0.36-1.65-0.36c-0.2,0-0.42,0.01-0.65,0.04
		c-0.23,0.02-0.45,0.08-0.64,0.16c-0.19,0.08-0.35,0.2-0.49,0.36c-0.13,0.16-0.2,0.37-0.2,0.64c0,0.32,0.12,0.58,0.35,0.78
		c0.23,0.2,0.54,0.36,0.91,0.49s0.8,0.24,1.29,0.34s0.97,0.21,1.47,0.33c0.52,0.12,1.02,0.26,1.51,0.42
		c0.49,0.17,0.93,0.39,1.31,0.66s0.69,0.62,0.92,1.02c0.23,0.41,0.35,0.91,0.35,1.51c0,0.85-0.17,1.56-0.51,2.14
		c-0.34,0.58-0.79,1.04-1.34,1.39c-0.55,0.35-1.18,0.6-1.89,0.74c-0.71,0.14-1.43,0.21-2.16,0.21c-0.75,0-1.48-0.08-2.2-0.23
		s-1.35-0.4-1.91-0.75s-1.02-0.81-1.38-1.39c-0.36-0.57-0.55-1.3-0.59-2.16h3.38C525.47,81.22,525.55,81.55,525.71,81.82z"/>
	<path class="st0" d="M540.22,81.18v3.85h-3.92v-3.85H540.22z"/>
	<path class="st0" d="M549.27,74.43c-0.57,0-1.04,0.13-1.43,0.39c-0.38,0.26-0.7,0.59-0.94,1c-0.24,0.41-0.41,0.86-0.51,1.35
		c-0.1,0.49-0.15,0.98-0.15,1.46c0,0.47,0.05,0.94,0.15,1.42c0.1,0.48,0.26,0.92,0.49,1.31c0.22,0.39,0.53,0.71,0.91,0.96
		s0.85,0.38,1.4,0.38c0.85,0,1.5-0.24,1.96-0.71c0.46-0.48,0.75-1.11,0.86-1.91h3.42c-0.23,1.72-0.9,3.03-2,3.93
		c-1.1,0.9-2.51,1.35-4.23,1.35c-0.97,0-1.85-0.16-2.66-0.49c-0.81-0.32-1.5-0.78-2.06-1.36s-1.01-1.28-1.33-2.09
		s-0.47-1.7-0.47-2.66c0-1,0.15-1.93,0.44-2.79c0.29-0.86,0.72-1.6,1.29-2.23s1.26-1.11,2.08-1.46s1.75-0.52,2.8-0.52
		c0.77,0,1.5,0.1,2.21,0.3c0.71,0.2,1.34,0.5,1.9,0.91c0.56,0.41,1.01,0.92,1.36,1.52c0.35,0.61,0.55,1.33,0.6,2.16h-3.47
		C551.67,75.17,550.79,74.43,549.27,74.43z"/>
	<path class="st0" d="M560.44,81.82c0.16,0.27,0.36,0.5,0.61,0.67c0.25,0.18,0.54,0.3,0.86,0.39s0.66,0.12,1.01,0.12
		c0.25,0,0.51-0.03,0.79-0.09c0.28-0.06,0.53-0.15,0.75-0.28c0.23-0.12,0.41-0.29,0.56-0.5c0.15-0.21,0.23-0.47,0.23-0.79
		c0-0.53-0.35-0.93-1.06-1.2c-0.71-0.27-1.7-0.53-2.96-0.8c-0.52-0.12-1.02-0.25-1.51-0.41c-0.49-0.16-0.93-0.37-1.31-0.62
		s-0.69-0.58-0.92-0.98s-0.35-0.87-0.35-1.44c0-0.83,0.16-1.52,0.49-2.05s0.75-0.95,1.29-1.26c0.53-0.31,1.13-0.52,1.8-0.65
		c0.67-0.12,1.35-0.19,2.05-0.19c0.7,0,1.38,0.07,2.04,0.2c0.66,0.13,1.25,0.36,1.76,0.68c0.52,0.32,0.95,0.74,1.29,1.26
		c0.34,0.53,0.55,1.19,0.61,1.99h-3.38c-0.05-0.68-0.31-1.15-0.77-1.39c-0.47-0.24-1.02-0.36-1.65-0.36c-0.2,0-0.42,0.01-0.65,0.04
		c-0.23,0.02-0.45,0.08-0.64,0.16c-0.19,0.08-0.35,0.2-0.49,0.36c-0.13,0.16-0.2,0.37-0.2,0.64c0,0.32,0.12,0.58,0.35,0.78
		c0.23,0.2,0.54,0.36,0.91,0.49s0.8,0.24,1.29,0.34s0.97,0.21,1.47,0.33c0.52,0.12,1.02,0.26,1.51,0.42
		c0.49,0.17,0.93,0.39,1.31,0.66s0.69,0.62,0.92,1.02c0.23,0.41,0.35,0.91,0.35,1.51c0,0.85-0.17,1.56-0.51,2.14
		c-0.34,0.58-0.79,1.04-1.34,1.39c-0.55,0.35-1.18,0.6-1.89,0.74c-0.71,0.14-1.43,0.21-2.16,0.21c-0.75,0-1.48-0.08-2.2-0.23
		s-1.35-0.4-1.91-0.75s-1.02-0.81-1.38-1.39c-0.36-0.57-0.55-1.3-0.59-2.16h3.38C560.2,81.22,560.28,81.55,560.44,81.82z"/>
	<path class="st0" d="M574.07,85.03l-4.42-12.92h3.72l2.73,8.82h0.05l2.72-8.82h3.53l-4.38,12.92H574.07z"/>
</g>
<g>
	<defs>
		<rect id="SVGID_1_" width="960.43" height="157.33"/>
	</defs>
	<clipPath id="SVGID_2_">
		<use xlink:href="#SVGID_1_"  style="overflow:visible;"/>
	</clipPath>
	<g class="st2">
		<rect y="-286.33" class="st3" width="960.33" height="485.28"/>
		<g>
			<path class="st4" d="M160.72-78.73h-2.02c-2.96,0-5.35-2.4-5.35-5.35v-1.93c0-0.84-0.63-1.59-1.47-1.64
				c-0.9-0.05-1.64,0.66-1.64,1.55v2.02c0,2.96-2.4,5.35-5.35,5.35h-2.02c-0.86,0-1.55,0.69-1.55,1.55l0,0
				c0,0.86,0.69,1.55,1.55,1.55h2.02c2.96,0,5.35,2.4,5.35,5.35v1.93c0,0.84,0.63,1.59,1.47,1.64c0.89,0.05,1.64-0.66,1.64-1.55
				v-2.02c0-2.96,2.4-5.35,5.35-5.35h2.02c0.86,0,1.55-0.69,1.55-1.55l0,0C162.28-78.03,161.58-78.73,160.72-78.73z"/>
			<path class="st4" d="M479.29-174.28h-2.02c-2.96,0-5.35-2.4-5.35-5.35v-1.93c0-0.84-0.63-1.59-1.47-1.64
				c-0.89-0.05-1.64,0.67-1.64,1.55v2.02c0,2.96-2.4,5.35-5.35,5.35h-2.02c-0.86,0-1.55,0.69-1.55,1.55l0,0
				c0,0.86,0.69,1.55,1.55,1.55h2.02c2.96,0,5.35,2.4,5.35,5.35v1.93c0,0.84,0.63,1.59,1.47,1.64c0.9,0.05,1.64-0.66,1.64-1.55
				v-2.02c0-2.96,2.4-5.35,5.35-5.35h2.02c0.86,0,1.55-0.69,1.55-1.55l0,0C480.85-173.59,480.15-174.28,479.29-174.28z"/>
			<path class="st4" d="M63.13-249.17h-2.02c-2.96,0-5.35-2.4-5.35-5.35v-1.93c0-0.84-0.63-1.59-1.47-1.64
				c-0.89-0.05-1.64,0.66-1.64,1.55v2.02c0,2.96-2.4,5.35-5.35,5.35h-2.02c-0.86,0-1.55,0.69-1.55,1.55l0,0
				c0,0.86,0.69,1.55,1.55,1.55h2.02c2.96,0,5.35,2.4,5.35,5.35v1.93c0,0.84,0.63,1.59,1.47,1.64c0.9,0.05,1.64-0.67,1.64-1.55
				v-2.02c0-2.96,2.4-5.35,5.35-5.35h2.02c0.86,0,1.55-0.69,1.55-1.55l0,0C64.68-248.48,63.99-249.17,63.13-249.17z"/>
			<path class="st4" d="M922.11-163.81h-2.02c-2.96,0-5.35-2.4-5.35-5.35v-1.93c0-0.84-0.63-1.59-1.47-1.64
				c-0.89-0.05-1.64,0.66-1.64,1.55v2.02c0,2.96-2.4,5.35-5.35,5.35h-2.02c-0.86,0-1.55,0.69-1.55,1.55l0,0
				c0,0.86,0.69,1.55,1.55,1.55h2.02c2.96,0,5.35,2.4,5.35,5.35v1.93c0,0.84,0.63,1.59,1.47,1.64c0.89,0.05,1.64-0.66,1.64-1.55
				v-2.02c0-2.96,2.4-5.35,5.35-5.35h2.02c0.86,0,1.55-0.69,1.55-1.55l0,0C923.67-163.11,922.97-163.81,922.11-163.81z"/>
			<path class="st4" d="M536.58-88.28h-0.99c-1.45,0-2.63-1.18-2.63-2.63v-0.95c0-0.41-0.31-0.78-0.72-0.8
				c-0.44-0.02-0.8,0.33-0.8,0.76v0.99c0,1.45-1.18,2.63-2.63,2.63h-0.99c-0.42,0-0.76,0.34-0.76,0.76l0,0
				c0,0.42,0.34,0.76,0.76,0.76h0.99c1.45,0,2.63,1.18,2.63,2.63v0.95c0,0.41,0.31,0.78,0.72,0.8c0.44,0.02,0.8-0.33,0.8-0.76v-0.99
				c0-1.45,1.18-2.63,2.63-2.63h0.99c0.42,0,0.76-0.34,0.76-0.76l0,0C537.35-87.94,537-88.28,536.58-88.28z"/>
			<path class="st4" d="M278.32-223.21h-0.99c-1.45,0-2.63-1.18-2.63-2.63v-0.95c0-0.41-0.31-0.78-0.72-0.8
				c-0.44-0.02-0.8,0.33-0.8,0.76v0.99c0,1.45-1.18,2.63-2.63,2.63h-0.99c-0.42,0-0.76,0.34-0.76,0.76l0,0
				c0,0.42,0.34,0.76,0.76,0.76h0.99c1.45,0,2.63,1.18,2.63,2.63v0.95c0,0.41,0.31,0.78,0.72,0.8c0.44,0.02,0.8-0.33,0.8-0.76v-0.99
				c0-1.45,1.18-2.63,2.63-2.63h0.99c0.42,0,0.76-0.34,0.76-0.76l0,0C279.08-222.87,278.74-223.21,278.32-223.21z"/>
			<path class="st4" d="M861.7-210.99h-0.99c-1.45,0-2.63-1.18-2.63-2.63v-0.95c0-0.41-0.31-0.78-0.72-0.8
				c-0.44-0.02-0.8,0.33-0.8,0.76v0.99c0,1.45-1.18,2.63-2.63,2.63h-0.99c-0.42,0-0.76,0.34-0.76,0.76l0,0
				c0,0.42,0.34,0.76,0.76,0.76h0.99c1.45,0,2.63,1.18,2.63,2.63v0.95c0,0.41,0.31,0.78,0.72,0.8c0.44,0.02,0.8-0.33,0.8-0.76v-0.99
				c0-1.45,1.18-2.63,2.63-2.63h0.99c0.42,0,0.76-0.34,0.76-0.76l0,0C862.47-210.64,862.12-210.99,861.7-210.99z"/>
			<path class="st4" d="M48.97-93.42h-0.99c-1.45,0-2.63-1.18-2.63-2.63v-0.95c0-0.41-0.31-0.78-0.72-0.8
				c-0.44-0.02-0.8,0.33-0.8,0.76v0.99c0,1.45-1.18,2.63-2.63,2.63h-0.99c-0.42,0-0.76,0.34-0.76,0.76l0,0
				c0,0.42,0.34,0.76,0.76,0.76h0.99c1.45,0,2.63,1.18,2.63,2.63v0.95c0,0.41,0.31,0.78,0.72,0.8c0.44,0.02,0.8-0.33,0.8-0.76v-0.99
				c0-1.45,1.18-2.63,2.63-2.63h0.99c0.42,0,0.76-0.34,0.76-0.76l0,0C49.73-93.08,49.39-93.42,48.97-93.42z"/>
			<path class="st4" d="M708.23-223.21h-0.99c-1.45,0-2.63-1.18-2.63-2.63v-0.95c0-0.41-0.31-0.78-0.72-0.8
				c-0.44-0.02-0.8,0.33-0.8,0.76v0.99c0,1.45-1.18,2.63-2.63,2.63h-0.99c-0.42,0-0.76,0.34-0.76,0.76l0,0
				c0,0.42,0.34,0.76,0.76,0.76h0.99c1.45,0,2.63,1.18,2.63,2.63v0.95c0,0.41,0.31,0.78,0.72,0.8c0.44,0.02,0.8-0.33,0.8-0.76v-0.99
				c0-1.45,1.18-2.63,2.63-2.63h0.99c0.42,0,0.76-0.34,0.76-0.76l0,0C708.99-222.87,708.65-223.21,708.23-223.21z"/>
			<path class="st4" d="M718.5-106.28h-0.99c-1.45,0-2.63-1.18-2.63-2.63v-0.95c0-0.41-0.31-0.78-0.72-0.8
				c-0.44-0.02-0.8,0.33-0.8,0.76v0.99c0,1.45-1.18,2.63-2.63,2.63h-0.99c-0.42,0-0.76,0.34-0.76,0.76l0,0
				c0,0.42,0.34,0.76,0.76,0.76h0.99c1.45,0,2.63,1.18,2.63,2.63v0.95c0,0.41,0.31,0.78,0.72,0.8c0.44,0.02,0.8-0.33,0.8-0.76v-0.99
				c0-1.45,1.18-2.63,2.63-2.63h0.99c0.42,0,0.76-0.34,0.76-0.76l0,0C719.26-105.94,718.92-106.28,718.5-106.28z"/>
			<g>
				<path class="st4" d="M329.97-161.27c-28.11,0-50.89,22.78-50.89,50.89h101.78C380.86-138.48,358.08-161.27,329.97-161.27z"/>
				<path class="st4" d="M406.31-135.82c-14.05,0-25.45,11.39-25.45,25.45h50.89C431.75-124.43,420.36-135.82,406.31-135.82z"/>
			</g>
			<g>
				<path class="st4" d="M808.45-152.51c-18.43,0-33.37,14.94-33.37,33.37h66.75C841.82-137.57,826.88-152.51,808.45-152.51z"/>
				<path class="st4" d="M858.51-135.82c-9.22,0-16.69,7.47-16.69,16.69h33.37C875.2-128.35,867.72-135.82,858.51-135.82z"/>
			</g>
			<g>
				<path class="st4" d="M151.8-210.22c-15.22,0-27.56,12.34-27.56,27.56h55.12C179.36-197.89,167.02-210.22,151.8-210.22z"/>
				<path class="st4" d="M193.14-196.44c-7.61,0-13.78,6.17-13.78,13.78h27.56C206.92-190.28,200.75-196.44,193.14-196.44z"/>
			</g>
			<g>
				<path class="st4" d="M616.01-192.6c-10.98,0-19.87,8.9-19.87,19.87h39.75C635.88-183.7,626.98-192.6,616.01-192.6z"/>
				<path class="st4" d="M645.82-182.66c-5.49,0-9.94,4.45-9.94,9.94h19.87C655.75-178.22,651.31-182.66,645.82-182.66z"/>
			</g>
		</g>
		<g>
			<path class="st5" d="M791.67,96.6v-6.11h3.31v-1.2h-51.62v1.2h3.13v6.11h-6.6v13.29h-10.06V79.24h-41.22v-6.69h-3.16v6.69h-5.89
				v50.53h-11.18v-30.2h-7.26V27.06l-25.38-11.49l-25.38,11.49v35.03h-8.68v-8.92h-8.43v8.92h-6.94V58.6h-5.83v3.48h-5.12V0.26
				h-10.15v-4.53h7.11v-3.04h-44.01v3.04h7.11v4.53h-10.15v61.82v37.48h-11.15V0.26h-5.04v-9.07h-15.47v9.07h-9.06v-9.07h-15.47
				v9.07h-5.04v97.06h-22.95v-8.39h-10.11v8.39h-3.33v18.67h-24.27V88.03l-44.33-17.78v71.96h33.6h10.73h24.27h12.48h23.92h11.08
				h19.57h19.44h11.15h50.1h17.89h17.11h8.75h22.23h19.77h7.26h11.18h38.21h1.49h10.57h10.06h6.4h51.98V96.6H791.67z M539.7-4.27
				h21.26v4.53H539.7V-4.27z M749.66,96.6v-6.11h38.85v6.11H749.66z"/>
			<rect y="142.14" class="st6" width="960.33" height="56.81"/>
			<g>
				<path class="st6" d="M265.15,142.14H0v-36.06c20.35-13.25,42.79-25.1,82.89-25.1C174.02,80.98,174.02,142.14,265.15,142.14z"/>
				<path class="st7" d="M82.89,142.14h182.25c-91.13,0-91.13-61.15-182.25-61.15h0V142.14z"/>
			</g>
			<g>
				<path class="st6" d="M498.2,142.14c-116.52,0-116.52-78.2-233.05-78.2c-116.53,0-116.53,78.2-233.05,78.2H498.2z"/>
				<path class="st7" d="M265.14,142.14H498.2c-116.52,0-116.52-78.2-233.05-78.2h0V142.14z"/>
			</g>
			<g>
				<path class="st6" d="M960.33,79.73v62.41H739.9c96.14,0,96.14-64.52,192.29-64.52C942.62,77.62,951.93,78.38,960.33,79.73z"/>
				<path class="st7" d="M960.33,79.73v62.41h-28.14V77.62C942.62,77.62,951.93,78.38,960.33,79.73z"/>
			</g>
			<g>
				<path class="st8" d="M197.03,122.53v38.4c0,1.33,1.63,2.41,3.65,2.41c2.02,0,3.65-1.08,3.65-2.41v-38.4H197.03z"/>
				<path class="st9" d="M204.33,122.53v38.4c0,1.33-1.64,2.41-3.65,2.41v-40.81H204.33z"/>
				<ellipse class="st10" cx="200.68" cy="99.37" rx="24.21" ry="45.57"/>
				<path class="st11" d="M200.68,53.8v91.14c13.37,0,24.21-20.4,24.21-45.57C224.89,74.2,214.05,53.8,200.68,53.8z"/>
				<circle class="st11" cx="189.45" cy="127.02" r="2.33"/>
				<circle class="st11" cx="195.73" cy="110.09" r="2.33"/>
				<circle class="st11" cx="181.06" cy="97.66" r="2.33"/>
				<circle class="st11" cx="193.4" cy="81.52" r="2.33"/>
				<circle class="st10" cx="205.63" cy="63.87" r="2.33"/>
				<circle class="st10" cx="215.12" cy="75.41" r="2.33"/>
				<circle class="st10" cx="205.63" cy="88.84" r="2.33"/>
				<circle class="st10" cx="215.12" cy="96.46" r="2.33"/>
				<circle class="st10" cx="204.84" cy="114.75" r="2.33"/>
				<circle class="st10" cx="212.36" cy="130.7" r="2.33"/>
				<circle class="st11" cx="189.45" cy="67.68" r="2.33"/>
			</g>
			<g>
				<path class="st8" d="M107.9,96.95v52.46c0,1.82,2.23,3.29,4.99,3.29c2.76,0,4.99-1.47,4.99-3.29V96.95H107.9z"/>
				<path class="st9" d="M117.87,96.95v52.46c0,1.82-2.23,3.29-4.99,3.29V96.95H117.87z"/>
				<ellipse class="st10" cx="112.89" cy="65.31" rx="33.08" ry="62.25"/>
				<path class="st11" d="M112.89,3.06v124.51c18.27,0,33.08-27.87,33.08-62.25S131.15,3.06,112.89,3.06z"/>
				<circle class="st11" cx="97.55" cy="103.08" r="3.18"/>
				<circle class="st11" cx="106.12" cy="79.96" r="3.18"/>
				<circle class="st11" cx="86.08" cy="62.99" r="3.18"/>
				<circle class="st11" cx="102.94" cy="40.93" r="3.18"/>
				<circle class="st10" cx="119.65" cy="16.83" r="3.18"/>
				<circle class="st10" cx="132.61" cy="32.58" r="3.18"/>
				<circle class="st10" cx="119.65" cy="50.93" r="3.18"/>
				<circle class="st10" cx="132.61" cy="61.34" r="3.18"/>
				<circle class="st10" cx="118.56" cy="86.33" r="3.18"/>
				<circle class="st10" cx="128.84" cy="108.11" r="3.18"/>
				<circle class="st11" cx="97.55" cy="22.03" r="3.18"/>
			</g>
			<g>
				<path class="st8" d="M836.03,111.99v44.99c0,1.56,1.92,2.82,4.28,2.82c2.36,0,4.28-1.26,4.28-2.82v-44.99H836.03z"/>
				<path class="st9" d="M844.59,111.99v44.99c0,1.56-1.92,2.82-4.28,2.82v-47.81H844.59z"/>
				<ellipse class="st10" cx="840.31" cy="84.85" rx="28.37" ry="53.39"/>
				<path class="st11" d="M840.31,31.46v106.78c15.67,0,28.37-23.9,28.37-53.39C868.68,55.36,855.98,31.46,840.31,31.46z"/>
				<circle class="st11" cx="827.15" cy="117.24" r="2.73"/>
				<circle class="st11" cx="834.51" cy="97.41" r="2.73"/>
				<circle class="st11" cx="817.31" cy="82.85" r="2.73"/>
				<circle class="st11" cx="831.77" cy="63.94" r="2.73"/>
				<circle class="st10" cx="846.11" cy="43.26" r="2.73"/>
				<circle class="st10" cx="857.22" cy="56.77" r="2.73"/>
				<circle class="st10" cx="846.11" cy="72.52" r="2.73"/>
				<circle class="st10" cx="857.22" cy="81.44" r="2.73"/>
				<circle class="st10" cx="845.18" cy="102.87" r="2.73"/>
				<circle class="st10" cx="853.99" cy="121.55" r="2.73"/>
				<circle class="st11" cx="827.15" cy="47.73" r="2.73"/>
			</g>
			<g>
				<path class="st10" d="M412.9,158.22c-5.15,0-9.32,4.17-9.32,9.32h18.64C422.22,162.39,418.05,158.22,412.9,158.22z"/>
				<path class="st11" d="M421.49,161.42c-3.38,0-6.13,2.74-6.13,6.13h12.25C427.62,164.16,424.88,161.42,421.49,161.42z"/>
			</g>
			<g>
				<path class="st8" d="M913.95,113.46v64.06c0,2.22,2.73,4.01,6.09,4.01c3.36,0,6.09-1.8,6.09-4.01v-64.06H913.95z"/>
				<path class="st9" d="M926.13,113.46v64.06c0,2.22-2.73,4.01-6.09,4.01v-68.07H926.13z"/>
				<ellipse class="st10" cx="920.04" cy="74.82" rx="40.39" ry="76.02"/>
				<path class="st11" d="M920.04-1.19v152.03c22.31,0,40.39-34.03,40.39-76.02C960.43,32.84,942.35-1.19,920.04-1.19z"/>
				<circle class="st11" cx="901.31" cy="120.94" r="3.89"/>
				<circle class="st11" cx="911.78" cy="92.71" r="3.89"/>
				<circle class="st11" cx="887.31" cy="71.98" r="3.89"/>
				<circle class="st11" cx="907.89" cy="45.05" r="3.89"/>
				<circle class="st10" cx="928.3" cy="15.61" r="3.89"/>
				<circle class="st10" cx="944.13" cy="34.85" r="3.89"/>
				<circle class="st10" cx="928.3" cy="57.26" r="3.89"/>
				<circle class="st10" cx="944.13" cy="69.97" r="3.89"/>
				<circle class="st10" cx="926.98" cy="100.48" r="3.89"/>
				<circle class="st10" cx="939.52" cy="127.08" r="3.89"/>
				<circle class="st11" cx="901.31" cy="21.97" r="3.89"/>
			</g>
			<g>
				<path class="st10" d="M926.17,175.4c-3.38,0-6.13,2.74-6.13,6.13h12.25C932.29,178.15,929.55,175.4,926.17,175.4z"/>
				<path class="st11" d="M937.96,171.2c-5.71,0-10.33,4.63-10.33,10.33h20.66C948.29,175.82,943.66,171.2,937.96,171.2z"/>
			</g>
			<g>
				<path class="st12" d="M640.49,166.29c-5.42,0-9.82,4.4-9.82,9.82h19.63C650.31,170.68,645.91,166.29,640.49,166.29z"/>
				<path class="st13" d="M650.31,176.11c0-5.42-4.4-9.82-9.82-9.82v9.82H650.31z"/>
			</g>
			<g>
				<path class="st12" d="M176.47,159.03c-5.42,0-9.82,4.4-9.82,9.82h19.63C186.28,163.43,181.89,159.03,176.47,159.03z"/>
				<path class="st13" d="M186.28,168.85c0-5.42-4.4-9.82-9.82-9.82v9.82H186.28z"/>
			</g>
			<g>
				<path class="st12" d="M762.72,144.68c-2.86,0-5.17,2.31-5.17,5.17h10.34C767.89,146.99,765.58,144.68,762.72,144.68z"/>
				<path class="st13" d="M767.89,149.85c0-2.86-2.32-5.17-5.17-5.17v5.17H767.89z"/>
			</g>
			<g>
				<path class="st12" d="M239.27,151.62c-2.86,0-5.17,2.31-5.17,5.17h10.34C244.45,153.93,242.13,151.62,239.27,151.62z"/>
				<path class="st13" d="M244.45,156.79c0-2.86-2.32-5.17-5.17-5.17v5.17H244.45z"/>
			</g>
			<g>
				<path class="st12" d="M862.7,154.97c-4.16,0-7.53,3.37-7.53,7.53h15.05C870.22,158.34,866.85,154.97,862.7,154.97z"/>
				<path class="st13" d="M870.22,162.49c0-4.16-3.37-7.53-7.53-7.53v7.53H870.22z"/>
			</g>
			<g>
				<g>
					<path class="st8" d="M321.45,66.66v11.28c0,0.39,0.48,0.71,1.07,0.71c0.59,0,1.07-0.32,1.07-0.71V66.66H321.45z"/>
					<path class="st14" d="M323.6,66.66v11.28c0,0.39-0.48,0.71-1.07,0.71V66.66H323.6z"/>
				</g>
				<polygon class="st10" points="322.52,41.62 312.68,72.65 332.36,72.65 				"/>
				<polygon class="st11" points="332.36,72.65 322.52,41.62 322.52,72.65 				"/>
			</g>
			<g>
				<g>
					<path class="st8" d="M238.49,58.89v8.24c0,0.29,0.35,0.52,0.78,0.52s0.78-0.23,0.78-0.52v-8.24H238.49z"/>
					<path class="st14" d="M240.06,58.89v8.24c0,0.29-0.35,0.52-0.78,0.52v-8.76H240.06z"/>
				</g>
				<polygon class="st10" points="239.27,40.59 232.08,63.27 246.47,63.27 				"/>
				<polygon class="st11" points="246.47,63.27 239.27,40.59 239.27,63.27 				"/>
			</g>
			<g>
				<g>
					<path class="st8" d="M389.48,116.21v11.28c0,0.39,0.48,0.71,1.07,0.71c0.59,0,1.07-0.32,1.07-0.71v-11.28H389.48z"/>
					<path class="st14" d="M391.62,116.21v11.28c0,0.39-0.48,0.71-1.07,0.71v-11.99H391.62z"/>
				</g>
				<polygon class="st10" points="390.55,91.17 380.71,122.2 400.39,122.2 				"/>
				<polygon class="st11" points="400.39,122.2 390.55,91.17 390.55,122.2 				"/>
			</g>
			<g>
				<g>
					<path class="st8" d="M791.43,129.71v11.28c0,0.39,0.48,0.71,1.07,0.71c0.59,0,1.07-0.32,1.07-0.71v-11.28H791.43z"/>
					<path class="st14" d="M793.58,129.71v11.28c0,0.39-0.48,0.71-1.07,0.71v-11.99H793.58z"/>
				</g>
				<polygon class="st10" points="792.51,104.68 782.66,135.71 802.35,135.71 				"/>
				<polygon class="st11" points="802.35,135.71 792.51,104.68 792.51,135.71 				"/>
			</g>
			<g>
				<g>
					<path class="st8" d="M155.73,97.7v11.28c0,0.39,0.48,0.71,1.07,0.71c0.59,0,1.07-0.32,1.07-0.71V97.7H155.73z"/>
					<path class="st14" d="M157.88,97.7v11.28c0,0.39-0.48,0.71-1.07,0.71V97.7H157.88z"/>
				</g>
				<polygon class="st10" points="156.81,72.66 146.97,103.69 166.65,103.69 				"/>
				<polygon class="st11" points="166.65,103.69 156.81,72.66 156.81,103.69 				"/>
			</g>
			<g>
				<g>
					<path class="st8" d="M15,95.37v11.28c0,0.39,0.48,0.71,1.07,0.71c0.59,0,1.07-0.32,1.07-0.71V95.37H15z"/>
					<path class="st14" d="M17.14,95.37v11.28c0,0.39-0.48,0.71-1.07,0.71V95.37H17.14z"/>
				</g>
				<polygon class="st10" points="16.07,70.33 6.23,101.36 25.91,101.36 				"/>
				<polygon class="st11" points="25.91,101.36 16.07,70.33 16.07,101.36 				"/>
			</g>
			<g>
				<g>
					<path class="st8" d="M278.86,113.24v17.64c0,0.61,0.75,1.11,1.68,1.11c0.93,0,1.68-0.49,1.68-1.11v-17.64H278.86z"/>
					<path class="st14" d="M282.21,113.24v17.64c0,0.61-0.75,1.11-1.68,1.11v-18.74H282.21z"/>
				</g>
				<polygon class="st10" points="280.54,74.09 265.15,122.62 295.93,122.62 				"/>
				<polygon class="st11" points="295.93,122.62 280.54,74.09 280.54,122.62 				"/>
			</g>
			<g>
				<path class="st8" d="M37.84,118.94v33.58c0,1.16,1.43,2.1,3.19,2.1c1.76,0,3.19-0.94,3.19-2.1v-33.58H37.84z"/>
				<path class="st9" d="M44.23,118.94v33.58c0,1.16-1.43,2.1-3.19,2.1v-35.69H44.23z"/>
				<ellipse class="st10" cx="41.03" cy="98.69" rx="21.17" ry="39.85"/>
				<path class="st11" d="M41.03,58.84v79.7c11.69,0,21.17-17.84,21.17-39.85S52.73,58.84,41.03,58.84z"/>
				<circle class="st11" cx="31.22" cy="122.86" r="2.04"/>
				<circle class="st11" cx="36.7" cy="108.06" r="2.04"/>
				<circle class="st11" cx="23.87" cy="97.2" r="2.04"/>
				<circle class="st11" cx="34.66" cy="83.08" r="2.04"/>
				<circle class="st10" cx="45.36" cy="67.65" r="2.04"/>
				<circle class="st10" cx="53.66" cy="77.73" r="2.04"/>
				<circle class="st10" cx="45.36" cy="89.48" r="2.04"/>
				<circle class="st10" cx="53.66" cy="96.14" r="2.04"/>
				<circle class="st10" cx="44.67" cy="112.14" r="2.04"/>
				<circle class="st10" cx="51.25" cy="126.08" r="2.04"/>
				<circle class="st11" cx="31.22" cy="70.98" r="2.04"/>
			</g>
			<g>
				<path class="st10" d="M36.2,152.72c-3.01,0-5.46,2.44-5.46,5.46h10.91C41.66,155.16,39.21,152.72,36.2,152.72z"/>
				<path class="st11" d="M46.7,148.98c-5.08,0-9.2,4.12-9.2,9.2H55.9C55.9,153.1,51.78,148.98,46.7,148.98z"/>
			</g>
		</g>
	</g>
</g>
<g>
</g>
<g>
</g>
<g>
</g>
<g>
</g>
<g>
</g>
<g>
</g>
<g>
</g>
<g>
</g>
<g>
</g>
<g>
</g>
<g>
</g>
<g>
</g>
<g>
</g>
<g>
</g>
<g>
</g>
</svg>
