<?xml version="1.0" encoding="utf-8"?>
<!-- Generator: Adobe Illustrator 19.0.0, SVG Export Plug-In . SVG Version: 6.00 Build 0)  -->
<svg version="1.0" id="Layer_1" xmlns="http://www.w3.org/2000/svg" xmlns:xlink="http://www.w3.org/1999/xlink" x="0px" y="0px"
	 viewBox="-129 -4.3 619.4 612" style="enable-background:new -129 -4.3 619.4 612;" xml:space="preserve">
<style type="text/css">
	.st0{fill:#FFA000;}
	.st1{fill:#FFCA28;}
</style>
<g>
	<path class="st0" d="M356.8,138H138.6L84,83.5H-52.4c-30,0-54.6,24.6-54.6,54.6v327.3c0,30,24.6,54.6,54.6,54.6h422.8
		c23.2,0,40.9-17.7,40.9-40.9V192.6C411.3,162.6,386.8,138,356.8,138z"/>
	<path class="st1" d="M414.1,219.9H47.2c-25.9,0-49.1,19.1-53.2,45l-46.4,255.1H380c25.9,0,49.1-19.1,53.2-45L467.3,284
		C474.1,251.2,448.2,219.9,414.1,219.9z"/>
</g>
</svg>
